#N canvas 0 0 1366 685 10;
#X obj -595 48 bng 15 250 50 0 empty empty empty 17 7 0 10 -262144
-1 -1;
#X obj -595 72 openpanel;
#X obj -598 136 soundfiler;
#X obj -642 174 bng 15 250 50 0 empty empty empty 17 7 0 10 -262144
-1 -1;
#X msg -556 195 stop;
#X floatatom -594 169 20 0 0 0 - - -;
#X obj -647 102 key;
#X obj -582 226 tabplay~ bajo2;
#X obj -672 135 select 53;
#X obj -659 244 bng 15 250 50 0 empty empty empty 17 7 0 10 -262144
-1 -1;
#X obj -698 175 key;
#X obj -678 540 *~;
#X obj -647 517 hsl 128 15 0 1 0 0 empty empty empty -2 -8 0 10 -262144
-1 -1 0 1;
#X obj -682 587 dac~;
#X obj -520 350 phasor~;
#X obj -521 416 *~;
#X floatatom -493 383 5 0 0 0 - - -;
#X obj -521 458 +~;
#X floatatom -493 432 5 0 0 0 - - -;
#X obj -430 524 snapshot~;
#X obj -434 479 metro 30;
#X floatatom -427 557 5 0 0 0 - - -;
#X obj -438 450 tgl 15 0 empty empty empty 17 7 0 10 -262144 -1 -1
0 1;
#X floatatom -518 312 5 0 0 0 - - -;
#N canvas 0 0 450 300 (subpatch) 0;
#X array cancion2 100 float 3;
#A 0 0 0 0 0 0 0 0 0 0 0 0 0 0 0 0 0 0 0 0 0 0 0 0 0 0 0 0 0 0 0 0
0 0 0 0 0 0 0 0 0 0 0 0 0 0 0 0 0 0 0 0 0 0 0 0 0 0 0 0 0 0 0 0 0 0
0 0 0 0 0 0 0 0 0 0 0 0 0 0 0 0 0 0 0 0 0 0 0 0 0 0 0 0 0 0 0 0 0 0
0;
#X coords 0 1 99 -1 200 140 1;
#X restore -432 48 graph;
#X msg -595 104 read -resize \$1 cancion2;
#X obj -584 273 delwrite~ cancion2 3000;
#X obj -679 485 vd~ cancion2;
#X obj -722 207 select 56;
#X obj -78 41 bng 15 250 50 0 empty empty empty 17 7 0 10 -262144 -1
-1;
#X obj -78 65 openpanel;
#X obj -81 129 soundfiler;
#X obj -125 167 bng 15 250 50 0 empty empty empty 17 7 0 10 -262144
-1 -1;
#X msg -39 188 stop;
#X floatatom -77 162 20 0 0 0 - - -;
#X obj -130 95 key;
#X obj -65 219 tabplay~ bajo2;
#X obj -155 128 select 53;
#X obj -142 237 bng 15 250 50 0 empty empty empty 17 7 0 10 -262144
-1 -1;
#X obj -181 168 key;
#X obj -161 533 *~;
#X obj -130 510 hsl 128 15 0 1 0 0 empty empty empty -2 -8 0 10 -262144
-1 -1 0 1;
#X obj -165 580 dac~;
#X obj -3 343 phasor~;
#X obj -4 409 *~;
#X floatatom 24 376 5 0 0 0 - - -;
#X obj -4 451 +~;
#X floatatom 24 425 5 0 0 0 - - -;
#X obj 87 517 snapshot~;
#X obj 83 472 metro 30;
#X floatatom 90 550 5 0 0 0 - - -;
#X obj 79 443 tgl 15 0 empty empty empty 17 7 0 10 -262144 -1 -1 0
1;
#X floatatom -1 305 5 0 0 0 - - -;
#N canvas 0 0 450 300 (subpatch) 0;
#X array cancion3 100 float 3;
#A 0 0 0 0 0 0 0 0 0 0 0 0 0 0 0 0 0 0 0 0 0 0 0 0 0 0 0 0 0 0 0 0
0 0 0 0 0 0 0 0 0 0 0 0 0 0 0 0 0 0 0 0 0 0 0 0 0 0 0 0 0 0 0 0 0 0
0 0 0 0 0 0 0 0 0 0 0 0 0 0 0 0 0 0 0 0 0 0 0 0 0 0 0 0 0 0 0 0 0 0
0;
#X coords 0 1 99 -1 200 140 1;
#X restore 86 49 graph;
#X msg -78 96 read -resize \$1 cancion3;
#X obj -65 268 delwrite~ cancion3 3000;
#X obj -162 478 vd~ cancion3;
#X obj -205 200 select 57;
#X connect 0 0 1 0;
#X connect 1 0 25 0;
#X connect 2 0 5 0;
#X connect 3 0 7 0;
#X connect 4 0 7 0;
#X connect 6 0 8 0;
#X connect 7 0 26 0;
#X connect 8 0 3 0;
#X connect 9 0 4 0;
#X connect 10 0 28 0;
#X connect 11 0 13 0;
#X connect 11 0 13 1;
#X connect 12 0 11 1;
#X connect 14 0 15 0;
#X connect 15 0 17 0;
#X connect 16 0 15 1;
#X connect 17 0 19 0;
#X connect 17 0 27 0;
#X connect 18 0 17 1;
#X connect 19 0 21 0;
#X connect 20 0 19 0;
#X connect 22 0 20 0;
#X connect 23 0 14 0;
#X connect 25 0 2 0;
#X connect 27 0 11 0;
#X connect 28 0 9 0;
#X connect 29 0 30 0;
#X connect 30 0 54 0;
#X connect 31 0 34 0;
#X connect 32 0 36 0;
#X connect 33 0 36 0;
#X connect 35 0 37 0;
#X connect 36 0 55 0;
#X connect 37 0 32 0;
#X connect 38 0 33 0;
#X connect 39 0 57 0;
#X connect 40 0 42 0;
#X connect 40 0 42 1;
#X connect 41 0 40 1;
#X connect 43 0 44 0;
#X connect 44 0 46 0;
#X connect 45 0 44 1;
#X connect 46 0 48 0;
#X connect 46 0 56 0;
#X connect 47 0 46 1;
#X connect 48 0 50 0;
#X connect 49 0 48 0;
#X connect 51 0 49 0;
#X connect 52 0 43 0;
#X connect 54 0 31 0;
#X connect 56 0 40 0;
#X connect 57 0 38 0;
