#N canvas 0 0 1362 685 10;
#X obj 425 29 bng 15 250 50 0 empty empty empty 17 7 0 10 -262144 -1
-1;
#X obj 425 53 openpanel;
#X obj 422 117 soundfiler;
#X obj 427 336 dac~;
#X obj 430 297 *~;
#X obj 486 293 hsl 128 15 0 1 0 0 empty empty empty -2 -8 0 10 -262144
-1 -1 5301 1;
#X obj 378 155 bng 15 250 50 0 empty empty empty 17 7 0 10 -262144
-1 -1;
#X msg 432 171 stop;
#X floatatom 426 150 20 0 0 0 - - -;
#X text 470 14 semple desde memoria con tabplay;
#X obj 362 78 key;
#X obj 889 27 bng 15 250 50 0 empty empty empty 17 7 0 10 -262144 -1
-1;
#X obj 889 51 openpanel;
#X obj 886 115 soundfiler;
#X obj 891 334 dac~;
#X obj 894 295 *~;
#X obj 925 270 hsl 128 15 0 1 0 0 empty empty empty -2 -8 0 10 -262144
-1 -1 7100 1;
#X obj 842 153 bng 15 250 50 0 empty empty empty 17 7 0 10 -262144
-1 -1;
#X msg 896 169 stop;
#X floatatom 890 148 20 0 0 0 - - -;
#X text 934 12 semple desde memoria con tabplay;
#X obj 826 76 key;
#X obj 18 42 bng 15 250 50 0 empty empty empty 17 7 0 10 -262144 -1
-1;
#X obj 18 66 openpanel;
#X obj 15 130 soundfiler;
#X obj 20 349 dac~;
#X obj 23 310 *~;
#X obj 54 285 hsl 128 15 0 1 0 0 empty empty empty -2 -8 0 10 -262144
-1 -1 9700 1;
#X obj -29 168 bng 15 250 50 0 empty empty empty 17 7 0 10 -262144
-1 -1;
#X msg 25 184 stop;
#X floatatom 19 163 20 0 0 0 - - -;
#X text 63 27 semple desde memoria con tabplay;
#X obj -22 72 key;
#X msg 17 98 read -resize \$1 taiko1;
#X obj 14 210 tabplay~ taiko1;
#N canvas 0 0 450 300 (subpatch) 0;
#X array taiko1 81627 float 2;
#X coords 0 1 81627 -1 200 140 1;
#X restore 121 132 graph;
#X msg 426 86 read -resize \$1 taiko2;
#X obj 421 197 tabplay~ taiko2;
#N canvas 0 0 450 300 (subpatch) 0;
#X array taiko2 81627 float 2;
#X coords 0 1 81627 -1 200 140 1;
#X restore 576 96 graph;
#X msg 888 83 read -resize \$1 Didgeridoo1;
#N canvas 0 0 450 300 (subpatch) 0;
#X array Didgeridoo1 81627 float 2;
#X coords 0 1 81627 -1 200 140 1;
#X restore 1052 99 graph;
#X obj 885 195 tabplay~ Didgeridoo1;
#X obj 493 434 bng 15 250 50 0 empty empty empty 17 7 0 10 -262144
-1 -1;
#X obj 493 458 openpanel;
#X obj 490 522 soundfiler;
#X obj 495 741 dac~;
#X obj 498 702 *~;
#X obj 529 677 hsl 128 15 0 1 0 0 empty empty empty -2 -8 0 10 -262144
-1 -1 8700 1;
#X obj 446 560 bng 15 250 50 0 empty empty empty 17 7 0 10 -262144
-1 -1;
#X msg 500 576 stop;
#X floatatom 494 555 20 0 0 0 - - -;
#X obj 453 464 key;
#X msg 492 489 read -resize \$1 Didgeridoo3;
#X obj 489 602 tabplay~ Didgeridoo3;
#N canvas 0 0 450 300 (subpatch) 0;
#X array Didgeridoo3 81627 float 2;
#X coords 0 1 81627 -1 200 140 1;
#X restore 648 526 graph;
#X obj 936 386 bng 15 250 50 0 empty empty empty 17 7 0 10 -262144
-1 -1;
#X obj 936 410 openpanel;
#X obj 933 474 soundfiler;
#X obj 938 693 dac~;
#X obj 941 654 *~;
#X obj 975 629 hsl 128 15 0 1 0 0 empty empty empty -2 -8 0 10 -262144
-1 -1 4500 1;
#X obj 889 512 bng 15 250 50 0 empty empty empty 17 7 0 10 -262144
-1 -1;
#X msg 943 528 stop;
#X floatatom 937 507 20 0 0 0 - - -;
#X obj 896 416 key;
#X obj 64 423 bng 15 250 50 0 empty empty empty 17 7 0 10 -262144 -1
-1;
#X obj 64 447 openpanel;
#X obj 61 511 soundfiler;
#X obj 66 730 dac~;
#X obj 69 691 *~;
#X obj 100 666 hsl 128 15 0 1 0 0 empty empty empty -2 -8 0 10 -262144
-1 -1 5800 1;
#X obj 17 549 bng 15 250 50 0 empty empty empty 17 7 0 10 -262144 -1
-1;
#X msg 71 565 stop;
#X floatatom 65 544 20 0 0 0 - - -;
#X obj 24 453 key;
#X msg 63 478 read -resize \$1 Didgeridoo2;
#X obj 60 591 tabplay~ Didgeridoo2;
#N canvas 0 0 450 300 (subpatch) 0;
#X array Didgeridoo2 81627 float 2;
#X coords 0 1 81627 -1 200 140 1;
#X restore 230 510 graph;
#X msg 935 441 read -resize \$1 cascabeles;
#X obj 931 555 tabplay~ cascabeles;
#N canvas 0 0 450 300 (subpatch) 0;
#X array cascabeles 81627 float 2;
#X coords 0 1 81627 -1 200 140 1;
#X restore 1094 469 graph;
#X floatatom 339 36 5 0 0 0 - - -;
#X obj 47 792 bng 15 250 50 0 empty empty empty 17 7 0 10 -262144 -1
-1;
#X obj 47 816 openpanel;
#X obj 44 880 soundfiler;
#X obj 49 1099 dac~;
#X obj 52 1060 *~;
#X obj 83 1035 hsl 128 15 0 1 0 0 empty empty empty -2 -8 0 10 -262144
-1 -1 7500 1;
#X obj 0 918 bng 15 250 50 0 empty empty empty 17 7 0 10 -262144 -1
-1;
#X msg 54 934 stop;
#X floatatom 48 913 20 0 0 0 - - -;
#X text 92 777 semple desde memoria con tabplay;
#X obj 7 822 key;
#X msg 46 848 read -resize \$1 taiko3;
#N canvas 0 0 450 300 (subpatch) 0;
#X array taiko3 163043 float 2;
#X coords 0 1 163043 -1 200 140 1;
#X restore 324 788 graph;
#X obj 43 960 tabplay~ taiko3;
#X obj -47 105 select 106;
#X obj 337 111 select 108;
#X obj -18 855 select 107;
#X obj 871 449 select 105;
#X obj 801 109 select 97;
#X obj -1 486 select 115;
#X obj 428 497 select 100;
#X obj 612 783 bng 15 250 50 0 empty empty empty 17 7 0 10 -262144
-1 -1;
#X obj 612 807 openpanel;
#X obj 609 871 soundfiler;
#X obj 614 1090 dac~;
#X obj 617 1051 *~;
#X obj 648 1026 hsl 128 15 0 1 0 0 empty empty empty -2 -8 0 10 -262144
-1 -1 5600 1;
#X obj 565 909 bng 15 250 50 0 empty empty empty 17 7 0 10 -262144
-1 -1;
#X msg 619 925 stop;
#X floatatom 613 904 20 0 0 0 - - -;
#X obj 572 813 key;
#X msg 611 838 read -resize \$1 Didgeridoo4;
#N canvas 0 0 450 300 (subpatch) 0;
#X array Didgeridoo4 81627 float 2;
#X coords 0 1 81627 -1 200 140 1;
#X restore 793 819 graph;
#X obj 608 951 tabplay~ Didgeridoo4;
#X obj 547 846 select 119;
#X obj 1098 799 bng 15 250 50 0 empty empty empty 17 7 0 10 -262144
-1 -1;
#X obj 1098 823 openpanel;
#X obj 1095 887 soundfiler;
#X obj 1100 1106 dac~;
#X obj 1103 1067 *~;
#X obj 1134 1042 hsl 128 15 0 1 0 0 empty empty empty -2 -8 0 10 -262144
-1 -1 6700 1;
#X obj 1051 925 bng 15 250 50 0 empty empty empty 17 7 0 10 -262144
-1 -1;
#X msg 1105 941 stop;
#X floatatom 1099 920 20 0 0 0 - - -;
#X obj 1058 829 key;
#X msg 1097 854 read -resize \$1 Didgeridoo5;
#X obj 1094 967 tabplay~ Didgeridoo5;
#N canvas 0 0 450 300 (subpatch) 0;
#X array Didgeridoo5 81627 float 2;
#X coords 0 1 81627 -1 200 140 1;
#X restore 1146 676 graph;
#X obj 1033 862 select 113;
#X connect 0 0 1 0;
#X connect 1 0 36 0;
#X connect 2 0 8 0;
#X connect 4 0 3 0;
#X connect 4 0 3 1;
#X connect 5 0 4 1;
#X connect 6 0 37 0;
#X connect 7 0 37 0;
#X connect 10 0 81 0;
#X connect 10 0 97 0;
#X connect 11 0 12 0;
#X connect 12 0 39 0;
#X connect 13 0 19 0;
#X connect 15 0 14 0;
#X connect 15 0 14 1;
#X connect 16 0 15 1;
#X connect 17 0 41 0;
#X connect 18 0 41 0;
#X connect 21 0 100 0;
#X connect 22 0 23 0;
#X connect 23 0 33 0;
#X connect 24 0 30 0;
#X connect 26 0 25 0;
#X connect 26 0 25 1;
#X connect 27 0 26 1;
#X connect 28 0 34 0;
#X connect 29 0 34 0;
#X connect 32 0 96 0;
#X connect 33 0 24 0;
#X connect 34 0 26 0;
#X connect 36 0 2 0;
#X connect 37 0 4 0;
#X connect 39 0 13 0;
#X connect 41 0 15 0;
#X connect 42 0 43 0;
#X connect 43 0 52 0;
#X connect 44 0 50 0;
#X connect 46 0 45 0;
#X connect 46 0 45 1;
#X connect 47 0 46 1;
#X connect 48 0 53 0;
#X connect 49 0 53 0;
#X connect 51 0 102 0;
#X connect 52 0 44 0;
#X connect 53 0 46 0;
#X connect 55 0 56 0;
#X connect 56 0 78 0;
#X connect 57 0 63 0;
#X connect 59 0 58 0;
#X connect 59 0 58 1;
#X connect 60 0 59 1;
#X connect 61 0 79 0;
#X connect 62 0 79 0;
#X connect 64 0 99 0;
#X connect 65 0 66 0;
#X connect 66 0 75 0;
#X connect 67 0 73 0;
#X connect 69 0 68 0;
#X connect 69 0 68 1;
#X connect 70 0 69 1;
#X connect 71 0 76 0;
#X connect 72 0 76 0;
#X connect 74 0 101 0;
#X connect 75 0 67 0;
#X connect 76 0 69 0;
#X connect 78 0 57 0;
#X connect 79 0 59 0;
#X connect 82 0 83 0;
#X connect 83 0 93 0;
#X connect 84 0 90 0;
#X connect 86 0 85 0;
#X connect 86 0 85 1;
#X connect 87 0 86 1;
#X connect 88 0 95 0;
#X connect 89 0 95 0;
#X connect 92 0 98 0;
#X connect 93 0 84 0;
#X connect 95 0 86 0;
#X connect 96 0 28 0;
#X connect 97 0 6 0;
#X connect 98 0 88 0;
#X connect 99 0 61 0;
#X connect 100 0 17 0;
#X connect 101 0 71 0;
#X connect 102 0 48 0;
#X connect 103 0 104 0;
#X connect 104 0 113 0;
#X connect 105 0 111 0;
#X connect 107 0 106 0;
#X connect 107 0 106 1;
#X connect 108 0 107 1;
#X connect 109 0 115 0;
#X connect 110 0 115 0;
#X connect 112 0 116 0;
#X connect 113 0 105 0;
#X connect 115 0 107 0;
#X connect 116 0 109 0;
#X connect 117 0 118 0;
#X connect 118 0 127 0;
#X connect 119 0 125 0;
#X connect 121 0 120 0;
#X connect 121 0 120 1;
#X connect 122 0 121 1;
#X connect 123 0 128 0;
#X connect 124 0 128 0;
#X connect 126 0 130 0;
#X connect 127 0 119 0;
#X connect 128 0 121 0;
#X connect 130 0 123 0;
